<svg width="129" height="196" viewBox="0 0 129 196" fill="none" xmlns="http://www.w3.org/2000/svg">
<ellipse cx="84" cy="42" rx="17" ry="18" fill="#F2CFFB"/>
<path d="M121 91C121 98.732 115.18 105 108 105C100.82 105 95 98.732 95 91C95 83.268 100.82 77 108 77C115.18 77 121 83.268 121 91Z" fill="#F2CFFB"/>
<ellipse cx="24" cy="25" rx="30" ry="29" fill="#F2CFFB"/>
<ellipse cx="60.5" cy="171" rx="9.5" ry="10" fill="#F2CFFB"/>
<circle cx="109.5" cy="188.5" r="7.5" fill="#F2CFFB"/>
<ellipse cx="80" cy="136.5" rx="10" ry="10.5" fill="#F2CFFB"/>
<circle cx="29" cy="133" r="14" fill="#F2CFFB"/>
<circle cx="121" cy="144" r="8" fill="#F2CFFB"/>
<ellipse cx="9.5" cy="81" rx="15.5" ry="17" fill="#F2CFFB"/>
<ellipse cx="58.5" cy="89" rx="15.5" ry="16" fill="#F2CFFB"/>
</svg>
