<svg width="242" height="167" viewBox="0 0 242 167" fill="none" xmlns="http://www.w3.org/2000/svg">
<g clip-path="url(#clip0_112_494)">
<path d="M157.94 72.9193C157.661 74.4565 157.327 75.978 156.937 77.4838C156.895 77.6587 156.847 77.8309 156.8 78.0058H151.375C150.913 78.0063 150.47 78.199 150.143 78.5415C149.816 78.884 149.633 79.3483 149.632 79.8327V96.0447C149.468 96.3657 149.301 96.6841 149.134 97.0025C148.273 98.6467 147.376 100.273 146.46 101.878C131.52 127.964 110.683 149.794 85.7887 165.439L87.2627 161.953C86.7224 161.913 86.1797 161.874 85.6394 161.835C73.8756 160.992 62.0719 160.058 50.5844 157.286C38.5666 154.387 26.8103 149.358 17.3917 141.019C7.97061 132.679 1.06424 120.767 0.105683 107.88C-0.213945 103.451 0.213373 98.9978 1.36804 94.7242C3.57631 86.4981 8.40144 79.0967 15.3626 74.7175C26.2974 67.8406 40.5609 69.2421 52.0882 74.9628C63.613 80.6809 72.9942 90.1466 82.1539 99.4479C72.9059 82.8242 60.0297 68.7357 44.5817 58.3383C39.4629 54.9038 34.0304 51.8452 29.6784 47.3955C25.3289 42.9483 22.1196 36.7135 22.889 30.3952C23.7628 23.2287 29.3622 17.7899 34.9715 13.5959C37.2122 11.9204 39.5251 10.3311 41.9103 8.86958C48.6399 4.73566 55.9198 1.61694 63.608 0.460802C74.0225 -1.10769 85.271 1.27245 93.2554 8.45462C102.251 16.5476 105.94 29.5992 105.589 42.0845C111.131 33.6392 119.679 27.1747 129.331 26.9007C139.352 26.6188 148.878 33.2556 153.897 42.3533C158.914 51.4485 159.815 62.5975 157.94 72.9193Z" fill="#E6E6E6"/>
<path d="M94.538 107.994C100.407 107.452 105.829 106.819 111.517 105.132C117.03 103.497 122.335 100.759 126.259 96.2892C130.481 91.4816 132.759 85.2379 134.367 79.0226C135.263 75.5572 136 72.0435 136.695 68.5285C137.449 64.7148 138.119 60.8842 138.705 57.0367C139.871 49.3782 140.704 41.6746 141.203 33.9259C141.263 32.9854 141.318 32.0445 141.368 31.1032C141.4 30.5226 140.538 30.5245 140.507 31.1032C140.097 38.7412 139.36 46.3494 138.295 53.9279C137.244 61.3736 135.9 68.7872 134.194 76.0995C132.749 82.2942 130.878 88.5856 127.171 93.7424C123.696 98.5781 118.676 101.738 113.256 103.628C107.741 105.55 101.925 106.318 96.1618 106.889C95.4548 106.959 95.2454 107.025 94.538 107.091C93.99 107.141 93.9849 108.045 94.538 107.994Z" fill="white"/>
<path d="M1.86515 95.3904C9.27043 95.8209 16.6004 97.1749 23.7 99.4236C30.8027 101.668 37.6282 104.782 44.035 108.702C50.2256 112.493 55.9726 117.028 61.1591 122.217C66.1928 127.256 70.6789 132.863 74.5356 138.936C78.4099 145.024 81.6206 151.549 84.1076 158.388C84.4109 159.225 84.703 160.066 84.984 160.911C85.1655 161.457 85.998 161.222 85.8146 160.671C83.4879 153.688 80.4206 147.001 76.6703 140.736C72.9208 134.47 68.5203 128.659 63.5495 123.409C58.499 118.078 52.8782 113.376 46.7987 109.396C34.0337 101.061 19.5647 96.0189 4.57978 94.6834C3.67586 94.604 2.77099 94.5386 1.86516 94.4874C1.3112 94.4556 1.31289 95.3587 1.86515 95.3904Z" fill="white"/>
<path d="M42.1429 9.92823C46.8777 11.5067 51.3657 13.8056 55.4632 16.7513C59.6501 19.7819 63.4686 23.3366 66.8341 27.3367C70.3807 31.5447 73.5339 36.0998 76.2501 40.9393C79.1313 46.0491 81.6341 51.3832 83.7367 56.8944C85.9018 62.5526 87.7227 68.3488 89.1887 74.2483C90.6789 80.2178 91.8429 86.2715 92.675 92.3799C93.5029 98.4236 94.0039 104.511 94.1756 110.614C94.3487 116.45 94.1842 122.292 93.6828 128.107C93.2243 133.531 92.3869 138.914 91.1774 144.211C90.1032 148.994 88.5895 153.658 86.6574 158.136C86.2098 159.152 85.7349 160.154 85.2327 161.142C84.9721 161.655 85.7155 162.112 85.9765 161.598C88.1117 157.321 89.8167 152.823 91.064 148.176C92.4633 143.003 93.4776 137.724 94.0978 132.387C94.7853 126.596 95.1201 120.765 95.1002 114.93C95.0878 108.8 94.7397 102.675 94.0575 96.5863C93.3751 90.4217 92.3618 84.3023 91.0226 78.2571C89.6866 72.2021 87.9919 66.2403 85.9483 60.4063C83.9787 54.7586 81.6204 49.2684 78.8921 43.9788C76.2935 38.9313 73.2653 34.1401 69.8442 29.6638C66.5952 25.4017 62.8861 21.5486 58.7908 18.1817C54.8419 14.9448 50.4783 12.3063 45.8281 10.3438C44.6918 9.86966 43.5397 9.44089 42.3719 9.05747C41.8419 8.88266 41.6151 9.75414 42.1429 9.92823Z" fill="white"/>
<path d="M93.2404 167C127.272 167 154.86 165.832 154.86 164.39C154.86 162.949 127.272 161.781 93.2404 161.781C59.2085 161.781 31.6203 162.949 31.6203 164.39C31.6203 165.832 59.2085 167 93.2404 167Z" fill="#E6E6E6"/>
<path d="M147.682 82.6486C147.652 82.7894 147.632 82.9325 147.623 83.0766L136.928 89.5442L134.328 87.9755L131.557 91.7785L137.118 95.9335L149.32 85.8433C149.817 86.0363 150.359 86.066 150.873 85.9283C151.387 85.7906 151.849 85.4921 152.198 85.0726C152.546 84.653 152.764 84.1322 152.823 83.5794C152.882 83.0266 152.78 82.4681 152.528 81.9781C152.277 81.4881 151.89 81.0898 151.418 80.8363C150.945 80.5827 150.411 80.4859 149.884 80.5587C149.358 80.6315 148.866 80.8704 148.473 81.2437C148.079 81.617 147.804 82.107 147.682 82.6486Z" fill="#FFB8B8"/>
<path d="M123.325 86.6164L131.746 92.9079L135.513 87.9579L127.326 81.0725C126.974 80.7763 126.568 80.5586 126.133 80.4327C125.697 80.3068 125.242 80.2753 124.795 80.3403C124.348 80.4053 123.918 80.5653 123.532 80.8105C123.145 81.0557 122.811 81.381 122.549 81.7665C122.038 82.5175 121.833 83.4504 121.979 84.3599C122.124 85.2695 122.609 86.0811 123.325 86.6164Z" fill="#EBC0F5"/>
<path d="M105.942 158.404L108.894 159.214L113.284 147.662L108.926 146.465L105.942 158.404Z" fill="#FFB8B8"/>
<path d="M113.87 163.653L104.591 161.104L105.53 157.345L111.224 158.91C112.175 159.171 112.988 159.817 113.484 160.707C113.981 161.596 114.119 162.656 113.87 163.653Z" fill="#2F2E41"/>
<path d="M132.189 160.607L135.194 160.045L134.553 147.628L130.119 148.459L132.189 160.607Z" fill="#FFB8B8"/>
<path d="M141.487 161.885L132.043 163.653L131.392 159.828L137.186 158.743C137.666 158.653 138.157 158.663 138.632 158.773C139.108 158.882 139.558 159.088 139.957 159.38C140.357 159.672 140.697 160.043 140.96 160.473C141.222 160.903 141.401 161.382 141.487 161.885Z" fill="#2F2E41"/>
<path d="M126.272 69.2923C127.012 69.4813 127.615 70.2721 127.977 71.1883C128.31 72.1506 128.536 73.1503 128.65 74.1673C128.934 76.0611 129.207 78.1114 128.619 79.8654C127.93 81.9213 126.094 82.998 124.501 82.492C122.909 81.986 121.642 80.0867 121.209 77.9003C120.815 75.6912 121.069 73.4087 121.937 71.3538C122.39 70.2741 123.013 69.278 123.842 68.7909C124.249 68.5332 124.733 68.4464 125.198 68.548C125.663 68.6496 126.074 68.932 126.349 69.3384" fill="#2F2E41"/>
<path d="M130.461 103.582L136.182 157.29L131.457 159.171L122.743 123.155L110.611 156.085L105.44 156.386C105.44 156.386 112.536 105.148 117.794 103.983L130.461 103.582Z" fill="#2F2E41"/>
<path d="M125.656 76.1465C129.034 76.1465 131.771 73.2767 131.771 69.7366C131.771 66.1965 129.034 63.3267 125.656 63.3267C122.279 63.3267 119.541 66.1965 119.541 69.7366C119.541 73.2767 122.279 76.1465 125.656 76.1465Z" fill="#FFB8B8"/>
<path d="M128.281 78.8356L121.673 77.9321C121.673 77.9321 117.363 83.3532 117.651 92.6894C117.938 102.026 116.932 104.887 116.932 104.887L130.71 105.148C128.719 102.277 137.049 85.7889 128.281 78.8356Z" fill="#EBC0F5"/>
<path d="M131.831 106.453C131.693 106.454 131.555 106.466 131.42 106.49L122.966 97.0564L123.828 94.0447L119.662 92.0872L117.076 98.7128L129.239 108.854C129.173 109.406 129.27 109.966 129.515 110.459C129.761 110.952 130.144 111.355 130.613 111.615C131.082 111.874 131.616 111.978 132.143 111.912C132.67 111.845 133.165 111.613 133.562 111.244C133.96 110.876 134.241 110.389 134.368 109.849C134.496 109.309 134.463 108.742 134.275 108.221C134.087 107.701 133.753 107.253 133.316 106.938C132.879 106.622 132.361 106.452 131.831 106.453Z" fill="#FFB8B8"/>
<path d="M122.572 82.5059L118.656 92.5389L124.115 95.2494L128.636 85.3203C128.83 84.8932 128.94 84.4289 128.957 83.9559C128.974 83.4829 128.899 83.0112 128.736 82.5697C128.574 82.1281 128.327 81.7261 128.011 81.3881C127.695 81.0501 127.316 80.7833 126.898 80.6041C126.495 80.4312 126.063 80.3432 125.627 80.3452C125.192 80.3472 124.761 80.4392 124.359 80.6158C123.957 80.7924 123.593 81.0502 123.286 81.3745C122.979 81.6988 122.737 82.0833 122.572 82.5059Z" fill="#EBC0F5"/>
<path d="M124.057 75.5641C125.015 74.9847 125.117 73.587 124.987 72.4356C124.857 71.2841 124.639 70.0005 125.285 69.059C126.056 67.9353 127.604 67.913 128.924 67.8763C130.243 67.8396 131.85 67.4345 132.192 66.0979C132.418 65.2147 131.935 64.2669 131.241 63.7125C130.548 63.1581 129.68 62.913 128.836 62.68C126.949 62.1589 125.001 61.6334 123.068 61.9199C121.155 62.2035 119.424 63.2657 118.252 64.8765C117.079 66.4873 116.559 68.5172 116.804 70.527C117.116 73.0979 117.57 74.2205 117.272 75.3541C116.718 77.4655 114.327 78.8219 114.279 81.0113C114.242 82.7238 115.685 84.0449 117.093 84.9145C118.21 85.6042 119.415 86.1895 120.702 86.351C121.989 86.5124 123.375 86.2033 124.333 85.2889C125.57 84.1095 125.876 82.1392 125.521 80.4266C125.167 78.714 124.257 77.1932 123.357 75.7162" fill="#2F2E41"/>
<path d="M239.759 77.4839H151.375C150.781 77.4848 150.211 77.7326 149.791 78.1729C149.371 78.6132 149.135 79.21 149.134 79.8327V139.336C149.135 139.959 149.371 140.556 149.791 140.996C150.211 141.436 150.781 141.684 151.375 141.685H239.759C240.353 141.684 240.923 141.436 241.343 140.996C241.763 140.556 241.999 139.959 242 139.336V79.8327C241.999 79.21 241.763 78.6132 241.343 78.1729C240.923 77.7326 240.353 77.4848 239.759 77.4839ZM241.502 139.336C241.502 139.821 241.318 140.285 240.991 140.627C240.664 140.97 240.221 141.162 239.759 141.163H151.375C150.913 141.162 150.47 140.97 150.143 140.627C149.816 140.285 149.633 139.821 149.632 139.336V79.8327C149.633 79.3484 149.816 78.884 150.143 78.5415C150.47 78.199 150.913 78.0064 151.375 78.0058H239.759C240.221 78.0064 240.664 78.199 240.991 78.5415C241.318 78.884 241.502 79.3484 241.502 79.8327V139.336Z" fill="#3F3D56"/>
<path d="M170.241 107.104H156.298C155.737 107.103 155.199 106.869 154.803 106.453C154.406 106.037 154.183 105.474 154.182 104.885V90.2706C154.183 89.6825 154.406 89.1186 154.803 88.7028C155.199 88.2869 155.737 88.0529 156.298 88.0522H170.241C170.802 88.0529 171.34 88.2869 171.736 88.7028C172.133 89.1186 172.356 89.6825 172.357 90.2706V104.885C172.356 105.474 172.133 106.037 171.736 106.453C171.34 106.869 170.802 107.103 170.241 107.104Z" fill="#EBC0F5"/>
<path d="M235.156 122.635H155.984C155.554 122.635 155.143 122.456 154.839 122.138C154.536 121.82 154.365 121.388 154.365 120.938C154.365 120.488 154.536 120.057 154.839 119.739C155.143 119.421 155.554 119.242 155.984 119.242H235.156C235.585 119.242 235.997 119.421 236.3 119.739C236.604 120.057 236.774 120.488 236.774 120.938C236.774 121.388 236.604 121.82 236.3 122.138C235.997 122.456 235.585 122.635 235.156 122.635Z" fill="#CCCCCC"/>
<path d="M235.209 114.414H156.037C155.608 114.414 155.196 114.235 154.892 113.917C154.589 113.599 154.418 113.167 154.418 112.717C154.418 112.267 154.589 111.836 154.892 111.518C155.196 111.2 155.608 111.021 156.037 111.021H235.209C235.638 111.021 236.05 111.2 236.354 111.518C236.657 111.836 236.828 112.267 236.828 112.717C236.828 113.167 236.657 113.599 236.354 113.917C236.05 114.235 235.638 114.414 235.209 114.414Z" fill="#CCCCCC"/>
<path d="M196.121 103.189H184.419C183.99 103.189 183.579 103.01 183.275 102.692C182.972 102.374 182.801 101.943 182.801 101.493C182.801 101.043 182.972 100.611 183.275 100.293C183.579 99.9751 183.99 99.7964 184.419 99.7964H196.121C196.55 99.7964 196.962 99.9751 197.265 100.293C197.569 100.611 197.739 101.043 197.739 101.493C197.739 101.943 197.569 102.374 197.265 102.692C196.962 103.01 196.55 103.189 196.121 103.189Z" fill="#CCCCCC"/>
<path d="M235.209 94.8403H184.419C183.99 94.8403 183.579 94.6615 183.275 94.3434C182.972 94.0253 182.801 93.5938 182.801 93.1439C182.801 92.694 182.972 92.2625 183.275 91.9444C183.579 91.6262 183.99 91.4475 184.419 91.4475H235.209C235.638 91.4475 236.05 91.6262 236.354 91.9444C236.657 92.2625 236.828 92.694 236.828 93.1439C236.828 93.5938 236.657 94.0253 236.354 94.3434C236.05 94.6615 235.638 94.8403 235.209 94.8403Z" fill="#CCCCCC"/>
<path d="M194.129 130.986H155.984C155.554 130.986 155.143 130.807 154.839 130.489C154.536 130.171 154.365 129.74 154.365 129.29C154.365 128.84 154.536 128.408 154.839 128.09C155.143 127.772 155.554 127.593 155.984 127.593H194.129C194.558 127.593 194.97 127.772 195.273 128.09C195.577 128.408 195.747 128.84 195.747 129.29C195.747 129.74 195.577 130.171 195.273 130.489C194.97 130.807 194.558 130.986 194.129 130.986Z" fill="#CCCCCC"/>
</g>
<defs>
<clipPath id="clip0_112_494">
<rect width="242" height="167" fill="white"/>
</clipPath>
</defs>
</svg>
