<svg width="197" height="186" viewBox="0 0 197 186" fill="none" xmlns="http://www.w3.org/2000/svg">
<g clip-path="url(#clip0_107_322)">
<path d="M182.107 142.295L190.945 143.69C193.937 140.033 195.999 135.695 196.952 131.052C190.49 136.391 180.663 133.554 172.827 136.469C170.39 137.397 168.191 138.867 166.393 140.77C164.596 142.673 163.245 144.959 162.442 147.46L158.123 152.151C162.032 153.714 166.231 154.402 170.429 154.169C174.628 153.935 178.726 152.786 182.442 150.8C184.516 149.665 186.44 148.27 188.169 146.65C185.076 144.684 182.107 142.295 182.107 142.295Z" fill="#F2F2F2"/>
<path d="M178.97 128.027L187.496 125.296C188.558 120.677 188.487 115.866 187.29 111.28C183.865 118.969 173.815 120.853 168.09 126.99C166.319 128.918 165 131.224 164.231 133.736C163.463 136.249 163.264 138.903 163.65 141.504L161.857 147.647C166.046 147.285 170.109 146.011 173.763 143.912C177.418 141.813 180.578 138.939 183.027 135.488C184.382 133.538 185.488 131.424 186.319 129.196C182.683 128.829 178.97 128.027 178.97 128.027Z" fill="#F2F2F2"/>
<path d="M197 154.993C197 155.039 196.991 155.085 196.974 155.127C196.956 155.17 196.931 155.208 196.899 155.241C196.866 155.273 196.828 155.299 196.786 155.317C196.744 155.334 196.699 155.343 196.653 155.343H0.346968C0.254948 155.343 0.166697 155.306 0.101629 155.241C0.0365617 155.175 7.62939e-06 155.086 7.62939e-06 154.993C7.62939e-06 154.9 0.0365617 154.811 0.101629 154.745C0.166697 154.68 0.254948 154.643 0.346968 154.643H196.653C196.699 154.642 196.744 154.651 196.786 154.669C196.828 154.687 196.866 154.712 196.899 154.745C196.931 154.777 196.956 154.816 196.974 154.859C196.991 154.901 197 154.947 197 154.993Z" fill="#CCCCCC"/>
<path d="M81.3453 140.061C115.966 140.061 144.031 111.729 144.031 76.7803C144.031 41.8314 115.966 13.4996 81.3453 13.4996C46.7248 13.4996 18.6593 41.8314 18.6593 76.7803C18.6593 111.729 46.7248 140.061 81.3453 140.061Z" fill="#E6E6E6"/>
<path d="M135.284 76.7803C135.291 85.2766 133.325 93.6562 129.544 101.247C125.763 108.838 120.273 115.429 113.513 120.491C113.061 120.832 112.601 121.165 112.137 121.489C103.098 127.832 92.3535 131.231 81.3453 131.231C70.3371 131.231 59.5923 127.832 50.5533 121.489C50.0898 121.165 49.6291 120.832 49.1772 120.491C42.4224 115.424 36.9356 108.833 33.1553 101.243C29.375 93.6529 27.4062 85.2755 27.4062 76.7803C27.4062 68.2851 29.375 59.9077 33.1553 52.3179C36.9356 44.728 42.4224 38.1363 49.1772 33.0695C49.6291 32.7281 50.0898 32.3955 50.5533 32.0718C59.5923 25.729 70.3371 22.3295 81.3453 22.3295C92.3535 22.3295 103.098 25.729 112.137 32.0718C112.601 32.3955 113.061 32.7281 113.513 33.0695C120.273 38.1318 125.763 44.7227 129.544 52.3135C133.325 59.9043 135.291 68.2839 135.284 76.7803Z" fill="white"/>
<path d="M81.3453 126.522C108.559 126.522 130.619 104.252 130.619 76.7803C130.619 49.3088 108.559 27.0388 81.3453 27.0388C54.132 27.0388 32.0712 49.3088 32.0712 76.7803C32.0712 104.252 54.132 126.522 81.3453 126.522Z" fill="#EBC0F5"/>
<path opacity="0.2" d="M81.4738 27.1778C80.7268 27.1778 79.9845 27.1975 79.2456 27.2307C91.6994 28.3355 103.271 34.1778 111.617 43.574C119.963 52.9702 124.459 65.2178 124.194 77.8352C123.929 90.4527 118.922 102.497 110.189 111.527C101.455 120.557 89.648 125.899 77.1591 126.469C78.5813 126.593 80.0196 126.661 81.4738 126.661C94.5421 126.661 107.075 121.42 116.316 112.092C125.557 102.764 130.748 90.1116 130.748 76.9193C130.748 63.7271 125.557 51.0751 116.316 41.7468C107.075 32.4184 94.5421 27.1778 81.4738 27.1778Z" fill="black"/>
<path d="M81.491 23.5068C81.066 23.5076 80.6585 23.6784 80.3579 23.9818C80.0574 24.2852 79.8882 24.6965 79.8875 25.1256V32.1895C79.8875 32.6188 80.0564 33.0306 80.3571 33.3342C80.6579 33.6378 81.0657 33.8083 81.491 33.8083C81.9163 33.8083 82.3242 33.6378 82.625 33.3342C82.9257 33.0306 83.0946 32.6188 83.0946 32.1895V25.1256C83.0939 24.6965 82.9247 24.2852 82.6241 23.9818C82.3236 23.6784 81.9161 23.5076 81.491 23.5068Z" fill="white"/>
<path d="M113.513 33.0695C113.061 32.7281 112.601 32.3955 112.137 32.0718C111.859 32.0535 111.581 32.1087 111.33 32.2321C111.08 32.3555 110.865 32.5427 110.709 32.7752L106.77 38.6118C106.53 38.9665 106.44 39.4028 106.52 39.8245C106.599 40.2462 106.841 40.6188 107.192 40.8604C107.544 41.102 107.976 41.1928 108.394 41.1127C108.811 41.0327 109.18 40.7884 109.42 40.4336L113.359 34.5971C113.509 34.3757 113.601 34.1199 113.628 33.8531C113.655 33.5864 113.616 33.317 113.513 33.0695Z" fill="white"/>
<path d="M131.409 59.6827C131.33 59.4859 131.213 59.3068 131.066 59.1557C130.918 59.0045 130.742 58.8842 130.548 58.8016C130.354 58.7191 130.146 58.6759 129.936 58.6746C129.725 58.6732 129.517 58.7138 129.322 58.7938L122.838 61.4516C122.444 61.6135 122.13 61.9265 121.965 62.3218C121.8 62.7171 121.797 63.1625 121.957 63.5599C122.117 63.9574 122.427 64.2745 122.818 64.4416C123.21 64.6086 123.651 64.612 124.045 64.4508L130.529 61.7931C130.922 61.6304 131.236 61.317 131.401 60.9215C131.566 60.5259 131.569 60.0805 131.409 59.6827Z" fill="white"/>
<path d="M55.921 38.6118L51.982 32.7752C51.825 32.5427 51.6107 32.3555 51.3602 32.2321C51.1096 32.1087 50.8315 32.0535 50.5534 32.0718C50.0898 32.3955 49.6291 32.7281 49.1772 33.0695C49.0747 33.317 49.0352 33.5864 49.0622 33.8531C49.0892 34.1199 49.1818 34.3757 49.3317 34.5971L53.2707 40.4336C53.51 40.7884 53.8792 41.0327 54.2969 41.1127C54.7147 41.1928 55.1468 41.102 55.4982 40.8604C55.8497 40.6188 56.0917 40.2462 56.171 39.8245C56.2502 39.4028 56.1603 38.9665 55.921 38.6118Z" fill="white"/>
<path d="M39.853 61.4516L33.3687 58.7939C32.9747 58.6324 32.5333 58.6355 32.1416 58.8024C31.7499 58.9694 31.4399 59.2866 31.2799 59.6843C31.1198 60.082 31.1228 60.5275 31.2882 60.923C31.4535 61.3184 31.7677 61.6314 32.1616 61.7931L38.6459 64.4508C39.0398 64.612 39.481 64.6086 39.8724 64.4416C40.2639 64.2745 40.5737 63.9574 40.7336 63.5599C40.8936 63.1624 40.8907 62.7171 40.7256 62.3218C40.5605 61.9265 40.2466 61.6135 39.853 61.4516Z" fill="white"/>
<path d="M81.491 119.752C81.066 119.753 80.6585 119.924 80.3579 120.227C80.0574 120.531 79.8882 120.942 79.8875 121.371V128.435C79.8875 128.864 80.0564 129.276 80.3571 129.58C80.6579 129.883 81.0657 130.054 81.491 130.054C81.9163 130.054 82.3242 129.883 82.625 129.58C82.9257 129.276 83.0946 128.864 83.0946 128.435V121.371C83.0939 120.942 82.9247 120.531 82.6241 120.227C82.3236 119.924 81.9161 119.753 81.491 119.752Z" fill="white"/>
<path d="M113.359 118.963L109.42 113.127C109.301 112.951 109.15 112.801 108.974 112.684C108.798 112.568 108.6 112.487 108.394 112.448C108.187 112.408 107.974 112.41 107.768 112.453C107.562 112.497 107.366 112.58 107.192 112.7C107.018 112.82 106.869 112.973 106.754 113.151C106.638 113.328 106.559 113.527 106.52 113.736C106.48 113.945 106.482 114.159 106.525 114.368C106.568 114.576 106.651 114.773 106.769 114.949L110.709 120.785C110.865 121.018 111.08 121.205 111.33 121.328C111.581 121.452 111.859 121.507 112.137 121.489C112.601 121.165 113.061 120.832 113.513 120.491C113.616 120.244 113.655 119.974 113.628 119.707C113.601 119.441 113.509 119.185 113.359 118.963Z" fill="white"/>
<path d="M130.529 91.7675L124.045 89.1097C123.651 88.9482 123.209 88.9513 122.818 89.1183C122.426 89.2853 122.116 89.6025 121.956 90.0001C121.796 90.3978 121.799 90.8434 121.964 91.2388C122.129 91.6343 122.444 91.9472 122.838 92.1089L129.322 94.7667C129.716 94.9278 130.157 94.9245 130.548 94.7574C130.94 94.5904 131.25 94.2732 131.41 93.8758C131.57 93.4783 131.567 93.0329 131.402 92.6376C131.236 92.2423 130.923 91.9293 130.529 91.7675Z" fill="white"/>
<path d="M55.4982 112.7C55.1468 112.459 54.7147 112.368 54.297 112.448C53.8792 112.528 53.5101 112.772 53.2707 113.127L49.3317 118.963C49.1818 119.185 49.0892 119.441 49.0622 119.707C49.0352 119.974 49.0747 120.244 49.1772 120.491C49.6291 120.832 50.0898 121.165 50.5534 121.489C50.8315 121.507 51.1096 121.452 51.3602 121.328C51.6107 121.205 51.8251 121.018 51.982 120.785L55.921 114.949C56.0395 114.773 56.1226 114.576 56.1655 114.368C56.2084 114.159 56.2103 113.945 56.171 113.736C56.1318 113.527 56.0521 113.328 55.9367 113.151C55.8213 112.973 55.6723 112.82 55.4982 112.7Z" fill="white"/>
<path d="M40.7335 89.9986C40.6543 89.8018 40.5375 89.6227 40.3897 89.4715C40.2419 89.3203 40.0661 89.2 39.8722 89.1175C39.6783 89.0349 39.4702 88.9917 39.2598 88.9904C39.0494 88.9891 38.8408 89.0296 38.6459 89.1097L32.1616 91.7675C31.768 91.9293 31.4541 92.2423 31.289 92.6376C31.1239 93.033 31.121 93.4783 31.281 93.8758C31.441 94.2733 31.7507 94.5904 32.1422 94.7574C32.5336 94.9245 32.9748 94.9278 33.3687 94.7667L39.853 92.1089C40.2464 91.9462 40.56 91.6328 40.725 91.2373C40.89 90.8418 40.8931 90.3964 40.7335 89.9986Z" fill="white"/>
<path d="M83.5717 75.977C83.7198 76.8619 83.5141 77.7699 82.9998 78.5019C82.4855 79.2338 81.7046 79.73 80.8285 79.8815L52.3725 84.7677C51.9384 84.8422 51.494 84.8297 51.0647 84.7309C50.6355 84.6321 50.2296 84.4489 49.8705 84.1917C49.5113 83.9346 49.2059 83.6085 48.9715 83.2322C48.7372 82.8559 48.5786 82.4367 48.5048 81.9985C48.4309 81.5603 48.4433 81.1117 48.5412 80.6783C48.6391 80.2449 48.8206 79.8353 49.0753 79.4727C49.3301 79.1101 49.653 78.8018 50.0258 78.5652C50.3986 78.3287 50.8139 78.1685 51.248 78.094L79.7039 73.2078C80.5805 73.0583 81.48 73.2659 82.205 73.7851C82.9301 74.3042 83.4216 75.0925 83.5717 75.977Z" fill="#3F3D56"/>
<path d="M113.521 107.803C113.112 108.218 112.557 108.452 111.977 108.455C111.397 108.457 110.84 108.227 110.428 107.815L79.7959 77.1349C79.3849 76.7224 79.1528 76.162 79.1508 75.5769C79.1488 74.9918 79.377 74.4298 79.7852 74.0145C80.1934 73.5991 80.7483 73.3644 81.3279 73.3618C81.9075 73.3592 82.4644 73.589 82.8762 74.0008L113.509 104.681C113.92 105.094 114.152 105.654 114.154 106.24C114.157 106.825 113.929 107.387 113.521 107.803Z" fill="#3F3D56"/>
<path d="M81.3453 80.6065C83.4386 80.6065 85.1356 78.8935 85.1356 76.7803C85.1356 74.6671 83.4386 72.954 81.3453 72.954C79.2519 72.954 77.5549 74.6671 77.5549 76.7803C77.5549 78.8935 79.2519 80.6065 81.3453 80.6065Z" fill="#CCCCCC"/>
<path d="M55.2376 10.4324C49.4195 19.6662 40.5425 25.7942 29.5948 29.8199C29.3784 29.9835 29.1323 30.1024 28.8705 30.17C28.6086 30.2375 28.3361 30.2523 28.0686 30.2136C27.801 30.1748 27.5437 30.0832 27.3112 29.944C27.0787 29.8049 26.8757 29.6208 26.7137 29.4025C20.767 21.3872 22.1098 9.93172 29.9581 3.8071C31.8556 2.32895 34.025 1.24602 36.3405 0.621164C38.6559 -0.00368871 41.0712 -0.158013 43.4462 0.167155C45.8212 0.492322 48.1086 1.2905 50.1755 2.51536C52.2425 3.74021 54.0478 5.36734 55.4867 7.30228L55.6512 7.52397C55.8132 7.74236 55.931 7.99081 55.9979 8.25516C56.0648 8.51951 56.0795 8.79457 56.0411 9.06465C56.0027 9.33472 55.912 9.59451 55.7741 9.82919C55.6363 10.0639 55.454 10.2688 55.2376 10.4324Z" fill="#E6E6E6"/>
<path d="M107.204 7.30228C108.643 5.36734 110.448 3.74021 112.515 2.51535C114.582 1.2905 116.869 0.492324 119.244 0.167156C121.619 -0.158012 124.035 -0.00369194 126.35 0.621161C128.665 1.24601 130.835 2.32895 132.732 3.8071C140.581 9.93172 141.924 21.3872 135.977 29.4025C135.815 29.6208 135.612 29.8049 135.379 29.944C135.147 30.0832 134.889 30.1748 134.622 30.2136C134.354 30.2523 134.082 30.2375 133.82 30.17C133.558 30.1024 133.312 29.9835 133.096 29.8199C122.933 25.892 114.598 19.0948 107.453 10.4324C107.016 10.1021 106.727 9.61007 106.649 9.06463C106.572 8.5192 106.712 7.96501 107.039 7.52396L107.204 7.30228Z" fill="#E6E6E6"/>
<path d="M104.654 131.604C104.283 131.815 104.01 132.164 103.895 132.577C103.779 132.99 103.83 133.433 104.037 133.807L113.292 150.503C113.5 150.877 113.847 151.153 114.256 151.27C114.665 151.386 115.103 151.334 115.474 151.124C115.846 150.915 116.119 150.565 116.235 150.152C116.35 149.739 116.298 149.296 116.091 148.922L106.836 132.226C106.628 131.852 106.281 131.577 105.872 131.46C105.463 131.344 105.025 131.395 104.654 131.604Z" fill="#E6E6E6"/>
<path d="M55.8543 132.226L46.5996 148.922C46.392 149.296 46.3404 149.739 46.456 150.152C46.5716 150.565 46.845 150.915 47.2161 151.124C47.5872 151.334 48.0255 151.386 48.4348 151.27C48.844 151.153 49.1906 150.877 49.3984 150.503L58.6531 133.808C58.756 133.622 58.8217 133.418 58.8464 133.207C58.8711 132.996 58.8544 132.782 58.7972 132.577C58.74 132.372 58.6434 132.181 58.513 132.014C58.3825 131.847 58.2208 131.708 58.037 131.604C57.8532 131.5 57.6509 131.434 57.4418 131.409C57.2326 131.384 57.0206 131.401 56.8179 131.459C56.6153 131.517 56.4258 131.614 56.2605 131.746C56.0952 131.878 55.9571 132.041 55.8543 132.226Z" fill="#E6E6E6"/>
<path d="M115.166 154.777C117.904 154.777 120.123 152.537 120.123 149.774C120.123 147.01 117.904 144.77 115.166 144.77C112.429 144.77 110.21 147.01 110.21 149.774C110.21 152.537 112.429 154.777 115.166 154.777Z" fill="#E6E6E6"/>
<path d="M118.665 26.7444C121.403 26.7444 123.622 24.5042 123.622 21.7408C123.622 18.9774 121.403 16.7373 118.665 16.7373C115.928 16.7373 113.709 18.9774 113.709 21.7408C113.709 24.5042 115.928 26.7444 118.665 26.7444Z" fill="#E6E6E6"/>
<path d="M81.0537 14.9713C83.7911 14.9713 86.0103 12.7311 86.0103 9.9677C86.0103 7.2043 83.7911 4.96412 81.0537 4.96412C78.3163 4.96412 76.0971 7.2043 76.0971 9.9677C76.0971 12.7311 78.3163 14.9713 81.0537 14.9713Z" fill="#E6E6E6"/>
<path d="M45.1915 26.1558C47.9289 26.1558 50.1481 23.9156 50.1481 21.1522C50.1481 18.3888 47.9289 16.1486 45.1915 16.1486C42.4541 16.1486 40.235 18.3888 40.235 21.1522C40.235 23.9156 42.4541 26.1558 45.1915 26.1558Z" fill="#E6E6E6"/>
<path d="M48.3987 154.777C51.1361 154.777 53.3553 152.537 53.3553 149.774C53.3553 147.01 51.1361 144.77 48.3987 144.77C45.6613 144.77 43.4421 147.01 43.4421 149.774C43.4421 152.537 45.6613 154.777 48.3987 154.777Z" fill="#E6E6E6"/>
<path d="M111.279 104.989C111.474 105.298 111.734 105.56 112.041 105.756C112.347 105.952 112.692 106.079 113.052 106.126C113.412 106.173 113.778 106.139 114.124 106.028C114.47 105.917 114.788 105.731 115.054 105.483L122.832 109.689L122.415 105.08L115.093 101.792C114.65 101.367 114.068 101.121 113.457 101.1C112.846 101.079 112.249 101.286 111.779 101.68C111.309 102.074 110.998 102.629 110.906 103.238C110.814 103.848 110.946 104.471 111.279 104.989Z" fill="#FFB7B7"/>
<path d="M116.945 106.598L119.993 102.351L134.676 109.358L152.948 105.897C153.851 105.726 154.78 105.757 155.67 105.99C156.559 106.222 157.388 106.649 158.095 107.241C158.803 107.833 159.373 108.574 159.765 109.414C160.156 110.253 160.36 111.168 160.362 112.096C160.363 113.772 159.706 115.379 158.535 116.566C157.363 117.753 155.773 118.422 154.114 118.427L133.175 118.466L116.945 106.598Z" fill="#3F3D56"/>
<path d="M112.251 179.952L109.167 178.463L113.403 165.452L117.954 167.649L112.251 179.952Z" fill="#FFB7B7"/>
<path d="M132.925 177.855C132.701 177.996 132.476 178.136 132.25 178.275C131.799 178.554 131.344 178.829 130.888 179.098C130.66 179.233 130.429 179.368 130.2 179.501V179.508L130.186 179.51L130.182 179.512L129.833 179.599L129.332 178.264L129.101 177.649L128.775 176.778L128.177 175.184L125.029 166.792L129.924 165.573L130.107 166.33H130.109L130.2 166.705L131.91 173.707L132.259 175.138L132.27 175.182L132.481 176.037L132.662 176.778L132.864 177.605L132.925 177.855Z" fill="#FFB7B7"/>
<path d="M162.124 148.385C161.814 148.888 161.497 149.389 161.177 149.885C160.584 150.809 159.975 151.719 159.35 152.615C159.35 152.617 159.347 152.617 159.345 152.62C158.98 152.961 158.577 153.258 158.145 153.505C158.126 153.518 158.106 153.527 158.088 153.539C157.769 153.717 157.43 153.854 157.078 153.948C156.951 153.98 156.822 154.012 156.695 154.044C156.237 154.154 155.784 154.248 155.334 154.33C154.532 154.474 153.739 154.577 152.951 154.641C152.887 154.648 152.824 154.652 152.76 154.657C149.519 154.897 146.364 154.511 143.071 153.877C141.444 153.566 139.784 153.194 138.065 152.807C137.503 152.679 136.939 152.553 136.368 152.428C136.325 152.418 136.28 152.407 136.235 152.398C135.419 152.217 134.59 152.039 133.741 151.863C132.672 151.641 131.568 151.426 130.422 151.223L130.504 152.853C130.572 154.107 130.83 155.343 131.269 156.518C131.759 157.963 132.146 159.107 131.328 161.487L130.934 162.639C131.139 163.212 131.209 163.824 131.139 164.428C131.07 165.032 130.862 165.612 130.533 166.122L130.454 166.243L133.741 174.637L133.954 175.181H132.271L130.2 175.183H126.692L121.629 164.93L121.387 164.441V164.416L121.91 144.713C121.917 144.539 121.931 144.363 121.953 144.189C122.046 143.399 122.293 142.636 122.68 141.943C123.068 141.251 123.589 140.643 124.212 140.156C124.808 139.685 125.492 139.338 126.223 139.137C126.953 138.935 127.716 138.882 128.468 138.98L130.2 139.207L133.741 139.669L136.235 139.996L136.284 140.002L143.639 140.963L144.167 138.791L144.264 138.754L147.361 137.608L158.07 133.646L158.097 133.637L158.801 133.376L158.885 133.513C158.91 133.554 158.935 133.595 158.958 133.637C159.654 134.897 160.221 136.225 160.65 137.602C161.371 139.85 161.964 142.138 162.428 144.454C162.448 144.555 162.466 144.646 162.482 144.729L162.489 144.754C162.496 144.793 162.5 144.818 162.503 144.825C162.749 145.863 162.577 147.13 162.124 148.385Z" fill="#2F2E41"/>
<path d="M162.576 141.124C162.542 140.977 162.499 140.829 162.454 140.685C162.094 139.594 161.675 138.523 161.199 137.479C160.665 136.29 160.024 135.016 159.26 133.637C158.891 132.97 158.494 132.275 158.069 131.554C157.856 131.193 157.635 130.825 157.405 130.45C157.396 130.433 157.386 130.416 157.376 130.4L157.31 130.29L146.714 131.721L142.768 132.254L142.533 134.239L142.476 134.73C142.474 134.73 142.474 134.73 142.476 134.733L142.318 136.073V136.075L142.107 137.845L142.089 137.842L136.234 137.076L130.199 136.288L126.958 135.865C126.207 135.766 125.444 135.819 124.713 136.021C123.982 136.222 123.299 136.569 122.702 137.04C122.079 137.527 121.559 138.135 121.171 138.827C120.783 139.52 120.536 140.283 120.444 141.073C120.423 141.233 120.41 141.398 120.403 141.56L117.345 148.875C115.515 153.25 114.35 157.878 113.889 162.604L111.646 169.841L111.966 169.87L116.718 170.316L117.973 170.435L120.736 166.363C121.051 165.899 121.35 165.421 121.628 164.931C122.087 164.132 122.495 163.304 122.849 162.453L128.827 148.093C129.289 148.173 129.746 148.249 130.199 148.322C132.295 148.665 134.306 148.944 136.234 149.161C142.501 149.867 147.928 149.922 152.759 149.323C154.116 149.156 155.428 148.937 156.694 148.665C157.158 148.566 157.617 148.46 158.069 148.347C158.175 148.322 158.279 148.297 158.384 148.269C159.32 148.025 160.18 147.549 160.887 146.882C161.593 146.216 162.123 145.382 162.427 144.455C162.79 143.382 162.842 142.226 162.576 141.124Z" fill="#2F2E41"/>
<path d="M113.236 177.828L109.9 176.213L109.377 175.959L108.541 178.031L102.706 179.328C102.417 179.391 102.157 179.547 101.962 179.771C101.767 179.995 101.648 180.276 101.623 180.573C101.598 180.87 101.667 181.167 101.821 181.422C101.975 181.676 102.206 181.874 102.479 181.987L108.181 184.335L109.99 182.691L109.546 184.898L111.694 185.782L114.047 178.221L113.236 177.828Z" fill="#2F2E41"/>
<path d="M133.741 174.637L133.954 175.181H133.741V174.637Z" fill="#2F2E41"/>
<path d="M132.579 175.297L129.083 176.52L128.534 176.711L129.384 178.777L126.142 183.843C125.981 184.093 125.904 184.389 125.922 184.686C125.94 184.984 126.051 185.268 126.24 185.497C126.429 185.726 126.686 185.888 126.973 185.959C127.26 186.031 127.561 186.008 127.834 185.893L133.522 183.512L133.662 181.059L134.885 182.942L137.027 182.046L133.429 175.001L132.579 175.297Z" fill="#2F2E41"/>
<path d="M161.704 144.436C161.497 144.436 161.292 144.385 161.109 144.287L142.66 134.556L142.447 133.675L142.045 130.887L142.051 130.861L143.806 122.696C143.773 122.625 143.706 122.51 143.63 122.38C142.847 121.041 140.463 116.963 145.013 111.349L153 101.948L159.856 101.65L159.934 101.75C161.767 104.072 163.003 106.816 163.532 109.737C164.062 112.659 163.868 115.666 162.969 118.494L162.255 131.508L163.021 134.136C163.468 135.681 163.394 137.332 162.81 138.829L162.986 143.085C162.993 143.259 162.965 143.433 162.903 143.597C162.842 143.76 162.749 143.909 162.629 144.035C162.51 144.161 162.366 144.262 162.207 144.331C162.048 144.4 161.877 144.436 161.704 144.436Z" fill="#3F3D56"/>
<path d="M145.702 155.169C146.014 154.983 146.283 154.73 146.488 154.427C146.693 154.125 146.83 153.781 146.889 153.419C146.948 153.058 146.928 152.688 146.83 152.335C146.732 151.982 146.558 151.655 146.322 151.377L150.757 143.677L146.179 143.937L142.669 151.21C142.233 151.642 141.969 152.221 141.927 152.836C141.886 153.452 142.069 154.061 142.443 154.549C142.817 155.037 143.355 155.37 143.956 155.484C144.556 155.599 145.178 155.487 145.702 155.169Z" fill="#FFB7B7"/>
<path d="M147.491 149.508L143.393 146.286L150.841 131.716L148.05 113.162C147.912 112.245 147.976 111.308 148.237 110.419C148.498 109.529 148.949 108.709 149.56 108.015C150.17 107.322 150.924 106.773 151.769 106.407C152.613 106.041 153.527 105.867 154.445 105.897C156.104 105.954 157.673 106.673 158.807 107.896C159.941 109.119 160.548 110.747 160.496 112.421L159.806 133.548L147.491 149.508Z" fill="#3F3D56"/>
<path d="M148.603 98.0421V91.194C148.601 88.7603 149.557 86.4257 151.261 84.7037C152.965 82.9817 155.276 82.0134 157.687 82.0118C160.098 82.0103 162.411 82.9755 164.116 84.6953C165.822 86.4151 166.781 88.7485 166.783 91.1822V91.194C168.385 94.5642 167.383 96.1665 166.783 98.0421C166.782 98.3687 166.654 98.6818 166.425 98.9127C166.196 99.1437 165.886 99.2736 165.562 99.2742H149.824C149.5 99.2738 149.19 99.1439 148.961 98.9129C148.732 98.682 148.603 98.3688 148.603 98.0421Z" fill="#2F2E41"/>
<path d="M154.712 98.8292C158.47 98.8292 161.517 95.7539 161.517 91.9604C161.517 88.1668 158.47 85.0916 154.712 85.0916C150.955 85.0916 147.908 88.1668 147.908 91.9604C147.908 95.7539 150.955 98.8292 154.712 98.8292Z" fill="#FFB7B7"/>
<path d="M161.833 93.7611C161.772 93.7512 161.71 93.7381 161.648 93.7283C160.587 93.5383 159.526 93.3515 158.467 93.1582L158.37 90.7368L157.088 92.9059C154.164 93.8855 151.427 93.3318 148.854 92.1097C148.005 91.7028 147.181 91.2444 146.387 90.7368C146.603 89.3977 147.113 88.1242 147.88 87.0097C148.646 85.8951 149.65 84.9677 150.817 84.2952C150.915 84.2394 151.009 84.1903 151.106 84.1411L151.107 84.1409L151.108 84.1402L151.109 84.1391L151.109 84.1379C151.275 84.0592 151.444 83.9839 151.613 83.9151C152.934 83.3938 154.375 83.2618 155.767 83.5344C157.16 83.807 158.448 84.473 159.48 85.455C161.557 87.457 162.492 90.763 161.833 93.7611Z" fill="#2F2E41"/>
</g>
<defs>
<clipPath id="clip0_107_322">
<rect width="197" height="186" fill="white"/>
</clipPath>
</defs>
</svg>
